DataType=double
version=3
OpenSimVersion=4.5-2023-11-26-efcdfd3eb
endheader
time	EMG01_right_gast_med	EMG02_right_glut_max	EMG03_left_gast_med	EMG04_left_glut_max	EMG05_right_glut_med	EMG06_right_bic_fem	EMG07_right_rect_fem	EMG08_right_vast_lat	EMG09_right_vast_med	EMG10_right_tens_fasc_lat	EMG11_left_glut_med	EMG12_left_bic_fem	EMG13_left_rect_fem	EMG14_left_vast_lat	EMG15_left_vast_med	EMG16_left_tens_fasc_lat
1.5	0.3269651055961681	0.03837212078417324	-0.006178358668861304	0.06830176674683902	0.02747405643230893	0.02179831866945958	0.02099056748637709	0.009337596444827368	0.01813876701897438	0.04302775141907834	0.05594602044535409	0.07371172233656673	0.04173792253901135	0.0441031553594415	0.005888603954616886	0.09295617806078388
1.51	0.3299442317484849	0.03285091607887344	-0.003398289887946235	0.06664013015382765	0.02801190514217818	0.0216755368072748	0.02091873563022497	0.008132732953536186	0.01594386447207717	0.04173476068130379	0.05961409383190038	0.07785093760857173	0.04452257833651456	0.04650549378931846	0.006789828850965812	0.0893357494999594
1.52	0.331947325022266	0.02772951146542887	-0.0005341003932228509	0.06517552035319932	0.02920914806789409	0.02192749366384555	0.02110621950548669	0.007125661528601759	0.01396748507784363	0.04068809525481775	0.06358289787361833	0.08183059658583884	0.04747943602513508	0.04905549191374116	0.008070623427497875	0.08583774291234518
1.53	0.3329283050582985	0.02305803462118018	0.002409373546926707	0.0639240675976732	0.03107778020757304	0.02249691174092387	0.02154544940870457	0.006318312953078557	0.01221612479424513	0.03989851799213932	0.06785901602126995	0.08561844097364706	0.05057887616726376	0.05173339413534883	0.009740045956099636	0.08253560772406293
1.54	0.332848490149973	0.01888270364599027	0.005431515618156021	0.06289787785175954	0.03362258861290524	0.02332658815602563	0.02222603680941898	0.005710867256607161	0.01069414977322658	0.03937632291966114	0.0724456853515847	0.08918381924493923	0.05378895215319146	0.05451663950242475	0.01180295288726818	0.07950047227591342
1.55	0.3316776542901287	0.01524551710050192	0.008535414426677483	0.06210501097916917	0.03684076892269473	0.0243603320526437	0.02313489765517555	0.005301819779867857	0.009403819180607642	0.03913138397823602	0.07734231041222842	0.09249792344400974	0.05707581310075067	0.05738014856163658	0.01425978328518713	0.07680022797174456
1.56	0.3293950328775179	0.01218396681678034	0.01172729384604048	0.06154950592060032	0.04072160976918367	0.02554383848911096	0.0242564080608382	0.005088053627414209	0.008345318881738678	0.03917315734425428	0.08254401953341849	0.09553400503742729	0.06040417384497025	0.06029665868402373	0.01710638679086866	0.07449864353861488
1.57	0.325990239290037	0.009730768688373449	0.01501590237113095	0.06123145149153358	0.04524625463431724	0.02682548801836548	0.02557259097202602	0.005064916376284267	0.007516804987434323	0.03951063326362078	0.08804127875638353	0.09826757227859571	0.06373782398396592	0.06323710160558341	0.02033390002068683	0.07265451634178657
1.58	0.3214640593317564	0.00791360769286001	0.01841187551899444	0.06114710356607803	0.05038755066630952	0.02815706328452624	0.02706333209040526	0.005226299150598716	0.006914456356528118	0.04015223608827566	0.09381957961190251	0.1006765717023486	0.06704016564468897	0.06617101626912018	0.023928676107528	0.07132087092798885
1.59	0.315829093460913	0.006754894877343613	0.0219270856728947	0.06128905051411816	0.05610999336501361	0.02949437527658217	0.02870662303011971	0.005564716545300109	0.006532535379544047	0.04110567396173099	0.09985921720481306	0.1027415571851696	0.07027476781528742	0.06906698994928806	0.0278722717062232	0.07054421741947242
1.6	0.3091102153914185	0.006271535875031931	0.02557399395740525	0.06164642851411012	0.0623697754677392	0.03079779293123364	0.03047882940950332	0.006071386370789064	0.006363456686847626	0.04237774215757908	0.1061351739056533	0.1044458504325642	0.07340592416978156	0.07189312075859952	0.0321414951953352	0.07036388335051504
1.61	0.3013448132221718	0.006474712497528908	0.02936501867983956	0.06220518688087703	0.06911494816832932	0.03203267094922716	0.03235498134304855	0.006736308741408743	0.006397863723913082	0.04397408635382132	0.11261712126369	0.1057756960118446	0.07639920151198545	0.07461749449984291	0.03670851903618488	0.07081143197385559
1.62	0.2925827802232847	0.00736968069089057	0.03331193456329671	0.06294840132098517	0.0762857028605437	0.03316967201171756	0.03430908337725899	0.007548344565137735	0.006624713385645515	0.0458989340407376	0.1192695487465482	0.10672041210973	0.07922196730640348	0.07720866802957359	0.04154105837384569	0.07191017833995403
1.63	0.2828862279157381	0.008955589466387729	0.03742531643264101	0.06385663059314381	0.08381478143255992	0.0341849811194804	0.03631444019739322	0.008495293931468403	0.007031369164636282	0.04815480354317695	0.1260520231750683	0.1072725355434533	0.08184388693697589	0.0796361496612719	0.04660261710292726	0.07367481216555732
1.64	0.2723289033554046	0.01122532646523437	0.0417140402085981	0.06490830972187457	0.09162802221392856	0.03506041203905933	0.03834399364929329	0.00956397521736856	0.007603703559511199	0.05074220060762484	0.1329195781238383	0.1074279566622116	0.08423738353767429	0.08187086517297491	0.05185280184511754	0.07611113427661466
1.65	0.2609953059034388	0.01416539672128418	0.04618485301579423	0.06608017083379086	0.09964504681407246	0.03578340942784447	0.04037066613865249	0.01074030599778221	0.008326210714276472	0.05365931236896025	0.1398232287901288	0.1071860368541875	0.08637805463336272	0.08388559694608115	0.05724770353960839	0.07921591160554078
1.66	0.2489795156194897	0.01775584183893384	0.05084202286797882	0.06734768104297761	0.1077800905225304	0.03634695477838826	0.04236770535233977	0.01200938715610604	0.009182130341590775	0.05690170804792385	0.1467106048753731	0.1065496986508411	0.08824504032654155	0.08565538479222787	0.0627403454631567	0.08297685438660404
1.67	0.2363837623225636	0.02197020712791514	0.0556870767064966	0.06868548594482728	0.1159429757918303	0.03674938838217096	0.04430902515666992	0.01335559197626729	0.01015358395396563	0.06046205492759538	0.1535266911769586	0.1055254766001333	0.08982133794726468	0.08715788008132461	0.06828119528882057	0.08737271816933384
1.68	0.2233167780261883	0.0267755643704512	0.06071863354775751	0.07006784745525153	0.124040224365538	0.03699416174007899	0.04616953706452045	0.01476266236026127	0.01122172434109159	0.06432985696674288	0.1602146621820707	0.1041235173353802	0.09109405849003052	0.08837364858922907	0.07381873721169256	0.09237353232110965
1.69	0.2098919851484481	0.03213259795832788	0.06593233718798271	0.07146906580996594	0.1319762986638462	0.03708953514283032	0.0479254657062638	0.01621381448268407	0.0123668990800684	0.06849122200169078	0.1667167928275887	0.1023575203224871	0.09205462097130868	0.08928642055326796	0.07930009835671387	0.09794095553158709
1.7	0.1962255790752293	0.03799576203621152	0.07132089035248751	0.072863876930604	0.1396549573131529	0.03704823420619816	0.04955464066595681	0.01769185607017446	0.01356882861390122	0.07292866208905474	0.1729754230301466	0.1002446158803133	0.09269888192577341	0.08988328813307547	0.08467172181685749	0.1040287572429587
1.71	0.1824345663078427	0.04431351585071334	0.07687418938666861	0.07422781736329638	0.1469807036399281	0.03688707762135409	0.05103675677234333	0.01917931710111797	0.01480679907585264	0.07762093037947901	0.1789339493575258	0.09780518229659295	0.09302719826561096	0.09015485131993929	0.0898800768395515	0.1105834218519041
1.72	0.1686348183594121	0.05102864365986599	0.08257955561510498	0.07553754935547292	0.1538602998387025	0.0366265866256015	0.05235359637919432	0.02065859513722623	0.01605986958275115	0.08254289750134745	0.1845378144590426	0.09506260744632007	0.09304442219645481	0.09009531420507351	0.09487239495561761	0.1175448699845514
1.73	0.1549391970939851	0.05807866438084995	0.08842205650801763	0.07677113898034814	0.1602043135020042	0.0362905848529535	0.05348921030949026	0.02211211579793834	0.01730709317161651	0.08766547139084609	0.1897354644782501	0.09204300166929894	0.09275982662994989	0.08970253465507375	0.09959741932145819	0.1248472882299449
1.74	0.1414558002019416	0.06539633481340489	0.09438490720504757	0.07790828146816144	0.1659286576870891	0.03590579531691673	0.05443005787184716	0.02352250812174188	0.01852774991960298	0.09295556671643997	0.1944792468667955	0.08877486835061725	0.09218695922876886	0.08897803127960661	0.1040061531870286	0.132420055616666
1.75	0.1282863670923218	0.07291024886326199	0.1004499413877585	0.07893047031543134	0.1709560818265727	0.03550143937281334	0.05516510944645034	0.02487279375736957	0.01970159011793902	0.09837613239036562	0.1987262257877833	0.08528873786927482	0.09134342413724812	0.08792695139789339	0.1080525920389952	0.140188751812399
1.76	0.1155248767173984	0.08054553355899879	0.1065981404420994	0.07982110993487017	0.1752175699342861	0.03510884076412798	0.05568591695682269	0.02614658812097534	0.02080908477615468	0.1038862470192349	0.2024388990693875	0.08161677055977756	0.09025059302713069	0.08655800232455353	0.1116944227002723	0.1480762281058569
1.77	0.1032563604487495	0.08822464052549774	0.1128102111153151	0.0805655750734728	0.1786536051357487	0.03476103644327979	0.05598665794676664	0.02732831086626508	0.02183168032157978	0.1094412924405788	0.205585807188074	0.07779233568702729	0.08893325019626844	0.08488334624637962	0.1148936720616584	0.1560037174904172
1.78	0.09155594532543591	0.09586822882432397	0.1190672034128943	0.08115122326685074	0.1812152647485972	0.03449239480212581	0.05606415804974595	0.02840340224214147	0.02275205414027215	0.1149932152960964	0.2081420279410239	0.07384957562253622	0.08741917862549269	0.08291845714880158	0.1176172886614669	0.1638919554278946
1.79	0.08048813572802761	0.1033961318660505	0.1253511609594389	0.08156736848554358	0.1828651167742129	0.03433824108659741	0.05591789479774303	0.029358541120903	0.02355436749329527	0.1204908859664425	0.2100895493949842	0.06982296603853395	0.08573869478921545	0.08068193724491618	0.11983764198336	0.1716622796292918
1.8	0.07010633479685284	0.1107283977136287	0.1316457947578945	0.08180522493193475	0.1835778959074431	0.03433448885529469	0.05554998368751991	0.03018185963271959	0.02422451221701451	0.1258805625471336	0.2114175107469817	0.06574688303449007	0.08392414030289115	0.0781952902971851	0.1215329269973899	0.1792376764384525
1.81	0.06045260086397388	0.1177863886096229	0.137937168473101	0.08185783045734117	0.1833409445521856	0.03451727522237139	0.05496514573897007	0.03086314848020645	0.02475034732851181	0.1311064646419114	0.212122299673617	0.06165518684942373	0.08200933881133751	0.07548265016381105	0.1226874651647397	0.1865437436728394
1.82	0.05155762892934536	0.1244939218880899	0.1442143795254336	0.08171995953356202	0.1821544113250835	0.03492259629388462	0.05417065450605816	0.0313940462677845	0.02512192107470733	0.1361114580808986	0.2122074983973482	0.05758082992919528	0.08002902701094274	0.07257046477745258	0.1232918974146212	0.1935095459107672
1.83	0.04344094274598077	0.1307784307245619	0.1504702155791538	0.08138803539072464	0.1800312055304879	0.03558593774149194	0.05317625956560072	0.03176820570172383	0.02533167309268951	0.1408378477097606	0.2116836789940173	0.05355549511836807	0.07801826917916274	0.06948713815922254	0.1233432684506268	0.2000683482279042
1.84	0.0361112792770143	0.1365721199627785	0.1567017607393421	0.08086004915903053	0.1769967112477566	0.03654189400281425	0.0519940831626409	0.03198142937078854	0.02537461037348815	0.1452282710733764	0.2105680579652244	0.04960926780968261	0.07601186492614979	0.06626263548841031	0.1228450046068799	0.2061582260206161
1.85	0.02956714414635848	0.141813089880985	0.162910920660289	0.08013549090676768	0.173088270006642	0.03782376840549596	0.05063848733908288	0.03203176807649952	0.0252484499954786	0.1492266808199594	0.2088840267737451	0.04577034416415707	0.07404376021891407	0.06292805842218668	0.1218067896427238	0.2117225587096752
1.86	0.02379751440385908	0.1464463989662585	0.1691048313699827	0.07921529430764085	0.1683544471707923	0.03946314600430043	0.04912591051010897	0.03191957551716268	0.02495372162457738	0.1527793979335195	0.206660577693656	0.04206477621076479	0.07214647223145068	0.05951519969833616	0.1202443445486335	0.216710421709504
